<svg width="618" height="254" viewBox="0 0 618 254" fill="none" xmlns="http://www.w3.org/2000/svg">
<path d="M207.5 188.7C172.027 188.7 154.29 170.057 154.29 132.77C154.29 112.71 158.767 98.2033 167.72 89.25C176.673 80.2967 189.933 75.82 207.5 75.82C225.067 75.82 238.327 80.2967 247.28 89.25C256.233 98.2033 260.71 112.71 260.71 132.77C260.71 170.057 242.973 188.7 207.5 188.7ZM207.5 169.15C217.813 169.15 225.35 166.203 230.11 160.31C234.983 154.303 237.42 145.123 237.42 132.77C237.42 119.057 234.983 109.423 230.11 103.87C225.35 98.2033 217.813 95.37 207.5 95.37C197.187 95.37 189.593 98.2033 184.72 103.87C179.96 109.423 177.58 119.057 177.58 132.77C177.58 145.123 179.96 154.303 184.72 160.31C189.593 166.203 197.187 169.15 207.5 169.15ZM300.263 187V95.2H266.603V77.52H356.703V95.2H323.213V187H300.263ZM369.36 187V77.52H392.31V187H369.36ZM465.074 188.7C446.714 188.7 432.661 183.77 422.914 173.91C413.167 163.937 408.294 150.393 408.294 133.28C408.294 115.147 412.997 101.037 422.404 90.95C431.924 80.8633 446.091 75.82 464.904 75.82C471.477 75.82 477.371 76.33 482.584 77.35C487.911 78.2567 492.897 79.56 497.544 81.26V101.32C487.911 97.3533 477.597 95.37 466.604 95.37C454.137 95.37 445.184 98.4867 439.744 104.72C434.304 110.953 431.584 120.473 431.584 133.28C431.584 157.307 443.371 169.32 466.944 169.32C472.271 169.32 477.541 168.867 482.754 167.96C487.967 166.94 492.954 165.467 497.714 163.54V183.77C493.067 185.243 488.081 186.433 482.754 187.34C477.541 188.247 471.647 188.7 465.074 188.7Z" fill="url(#paint0_linear_90_6)"/>
<path d="M525.655 185.48C516.619 185.48 511.383 175.246 516.669 167.917L535.253 142.155C540.252 135.225 540.296 125.884 535.362 118.907L517.299 93.3631C512.143 86.0725 517.357 76 526.286 76C529.896 76 533.277 77.7703 535.333 80.7376L540.942 88.8303C548.896 100.307 565.864 100.307 573.818 88.8303L579.427 80.7376C581.483 77.7703 584.864 76 588.474 76C597.403 76 602.617 86.0725 597.461 93.3631L579.398 118.907C574.464 125.884 574.508 135.225 579.507 142.155L598.091 167.917C603.377 175.246 598.141 185.48 589.105 185.48C585.519 185.48 582.155 183.745 580.077 180.824L573.675 171.828C565.701 160.623 549.059 160.623 541.085 171.828L534.683 180.824C532.605 183.745 529.241 185.48 525.655 185.48Z" fill="url(#paint1_linear_90_6)"/>
<path d="M142 117.029C142 160.103 114.162 187 79.7713 187C76.7688 187 72.2464 186.931 66.8437 186.803C29.7011 185.974 0 153.672 0 114.129V0C24.5486 0 44.4451 21.1767 44.4451 47.3048V61.4982C53.1006 52.0392 65.0274 47.5514 79.7713 47.5514C114.162 47.5613 142 74.2023 142 117.029ZM99.8717 117.029C99.8717 96.6119 88.1766 85.1605 73.2009 85.1605C58.2253 85.1605 46.5302 96.6119 46.5302 117.029C46.5302 137.693 58.2253 149.401 73.2009 149.401C88.1673 149.391 99.8717 137.693 99.8717 117.029Z" fill="#AF47D2"/>
<circle cx="607" cy="198" r="11" fill="url(#paint2_linear_90_6)"/>
<path d="M178.38 211.15H170.85V217.33H177.96V220.42H170.85V230.29H167.58V208.09H178.38V211.15ZM198.641 208.03V222.52C198.641 225.52 197.691 227.73 195.791 229.15C194.371 230.23 192.611 230.77 190.511 230.77C188.431 230.77 186.671 230.23 185.231 229.15C183.351 227.75 182.411 225.54 182.411 222.52V208.03H185.681V222.37C185.681 223.99 186.091 225.27 186.911 226.21C187.751 227.21 188.951 227.71 190.511 227.71C192.071 227.71 193.291 227.21 194.171 226.21C194.971 225.29 195.371 224.01 195.371 222.37V208.03H198.641ZM217.407 211.06H211.317V230.29H208.047V211.06H201.987V208.09H217.407V211.06ZM236.815 208.03V222.52C236.815 225.52 235.865 227.73 233.965 229.15C232.545 230.23 230.785 230.77 228.685 230.77C226.605 230.77 224.845 230.23 223.405 229.15C221.525 227.75 220.585 225.54 220.585 222.52V208.03H223.855V222.37C223.855 223.99 224.265 225.27 225.085 226.21C225.925 227.21 227.125 227.71 228.685 227.71C230.245 227.71 231.465 227.21 232.345 226.21C233.145 225.29 233.545 224.01 233.545 222.37V208.03H236.815ZM245.861 217.27H247.391C248.711 217.27 249.751 217.03 250.511 216.55C251.431 216.01 251.891 215.19 251.891 214.09C251.891 212.79 251.501 211.94 250.721 211.54C250.181 211.28 249.081 211.15 247.421 211.15H245.861V217.27ZM257.021 230.29H253.571L250.331 222.79C249.891 221.77 249.491 221.13 249.131 220.87C248.691 220.53 247.991 220.36 247.031 220.36H245.861V230.29H242.651V208.09H248.531C252.931 208.09 255.131 210.09 255.131 214.09C255.131 215.41 254.721 216.51 253.901 217.39C253.081 218.27 252.011 218.84 250.691 219.1C251.811 219.32 252.641 220.06 253.181 221.32L257.021 230.29ZM272.035 230.41H260.635V208.03H271.705V211.09H263.905V217.33H271.285V220.39H263.905V227.32H272.035V230.41ZM297.129 218.26H297.879C299.679 218.26 300.949 218.04 301.689 217.6C302.629 217.06 303.099 216.07 303.099 214.63C303.099 212.27 301.989 211.09 299.769 211.09H297.129V218.26ZM293.859 208.03H299.499C301.699 208.03 303.379 208.58 304.539 209.68C305.779 210.8 306.399 212.45 306.399 214.63C306.399 216.71 305.719 218.37 304.359 219.61C303.059 220.75 301.369 221.32 299.289 221.32H297.129V230.41H293.859V208.03ZM313.566 217.27H315.096C316.416 217.27 317.456 217.03 318.216 216.55C319.136 216.01 319.596 215.19 319.596 214.09C319.596 212.79 319.206 211.94 318.426 211.54C317.886 211.28 316.786 211.15 315.126 211.15H313.566V217.27ZM324.726 230.29H321.276L318.036 222.79C317.596 221.77 317.196 221.13 316.836 220.87C316.396 220.53 315.696 220.36 314.736 220.36H313.566V230.29H310.356V208.09H316.236C320.636 208.09 322.836 210.09 322.836 214.09C322.836 215.41 322.426 216.51 321.606 217.39C320.786 218.27 319.716 218.84 318.396 219.1C319.516 219.32 320.346 220.06 320.886 221.32L324.726 230.29ZM337.31 210.67C335.23 210.67 333.59 211.55 332.39 213.31C331.29 214.89 330.74 216.85 330.74 219.19C330.74 221.55 331.29 223.52 332.39 225.1C333.59 226.86 335.23 227.74 337.31 227.74C339.39 227.74 341.03 226.86 342.23 225.1C343.31 223.52 343.85 221.55 343.85 219.19C343.85 216.87 343.31 214.91 342.23 213.31C341.03 211.55 339.39 210.67 337.31 210.67ZM337.31 207.64C340.51 207.64 343 208.83 344.78 211.21C346.36 213.33 347.14 215.99 347.12 219.19C347.08 222.69 346.26 225.45 344.66 227.47C342.92 229.67 340.47 230.77 337.31 230.77C334.17 230.77 331.71 229.67 329.93 227.47C328.29 225.41 327.47 222.65 327.47 219.19C327.47 215.95 328.25 213.28 329.81 211.18C331.57 208.82 334.07 207.64 337.31 207.64ZM360.923 210.67C358.843 210.67 357.203 211.55 356.003 213.31C354.903 214.89 354.353 216.85 354.353 219.19C354.353 221.55 354.903 223.52 356.003 225.1C357.203 226.86 358.843 227.74 360.923 227.74C363.003 227.74 364.643 226.86 365.843 225.1C366.923 223.52 367.463 221.55 367.463 219.19C367.463 216.87 366.923 214.91 365.843 213.31C364.643 211.55 363.003 210.67 360.923 210.67ZM360.923 207.64C364.123 207.64 366.613 208.83 368.393 211.21C369.973 213.33 370.753 215.99 370.733 219.19C370.693 222.69 369.873 225.45 368.273 227.47C366.533 229.67 364.083 230.77 360.923 230.77C357.783 230.77 355.323 229.67 353.543 227.47C351.903 225.41 351.083 222.65 351.083 219.19C351.083 215.95 351.863 213.28 353.423 211.18C355.183 208.82 357.683 207.64 360.923 207.64ZM386.036 211.15H378.506V217.33H385.616V220.42H378.506V230.29H375.236V208.09H386.036V211.15ZM393.038 230.29H389.738V208.09H393.038V230.29ZM414.356 230.41H410.756L401.156 213.64V230.41H397.916V208.03H401.366L411.116 225.07V208.03H414.356V230.41ZM437.533 217.72V229.33C435.393 230.23 433.053 230.68 430.513 230.68C427.073 230.68 424.333 229.62 422.293 227.5C420.293 225.42 419.293 222.65 419.293 219.19C419.293 215.73 420.323 212.96 422.383 210.88C424.443 208.76 427.163 207.7 430.543 207.7C433.143 207.7 435.193 208.06 436.693 208.78L436.303 211.96C434.843 211.16 432.923 210.76 430.543 210.76C428.083 210.76 426.133 211.55 424.693 213.13C423.293 214.65 422.593 216.67 422.593 219.19C422.593 221.73 423.273 223.76 424.633 225.28C426.033 226.84 427.993 227.62 430.513 227.62C432.133 227.62 433.363 227.46 434.203 227.14V220.78H429.583V217.72H437.533ZM454.825 230.29H451.525V208.09H454.825V230.29ZM463.063 227.2H464.143C470.223 227.2 473.263 224.48 473.263 219.04C473.263 213.78 470.663 211.15 465.463 211.15H463.063V227.2ZM459.793 208.09H465.463C469.223 208.09 472.053 209.13 473.953 211.21C475.653 213.09 476.503 215.73 476.503 219.13C476.503 222.97 475.283 225.84 472.843 227.74C470.703 229.44 467.733 230.29 463.933 230.29H459.793V208.09ZM493.05 230.41H481.65V208.03H492.72V211.09H484.92V217.33H492.3V220.39H484.92V227.32H493.05V230.41ZM509.998 221.59L506.368 212.35L502.708 221.59H509.998ZM516.958 230.41H513.478L511.198 224.68H501.478L499.168 230.41H495.718L504.838 208.03H508.108L516.958 230.41ZM530.64 211.48C529.64 210.98 528.3 210.73 526.62 210.73C524.02 210.73 522.72 211.69 522.72 213.61C522.72 214.53 523.53 215.5 525.15 216.52C526.49 217.38 527.54 218.06 528.3 218.56C529.06 219.06 529.52 219.39 529.68 219.55C531.3 220.97 532.11 222.61 532.11 224.47C532.11 226.55 531.31 228.18 529.71 229.36C528.35 230.36 526.72 230.86 524.82 230.86C522.92 230.86 521.18 230.51 519.6 229.81L519.99 226.48C521.49 227.32 523.14 227.74 524.94 227.74C527.6 227.74 528.93 226.57 528.93 224.23C528.93 223.31 528.12 222.31 526.5 221.23C525.04 220.25 523.93 219.5 523.17 218.98C522.43 218.46 522.03 218.18 521.97 218.14C520.37 216.76 519.57 215.25 519.57 213.61C519.57 211.75 520.29 210.26 521.73 209.14C523.03 208.14 524.67 207.64 526.65 207.64C528.29 207.64 529.8 207.9 531.18 208.42L530.64 211.48Z" fill="#26355D"/>
<ellipse cx="72.5" cy="115.5" rx="37.5" ry="39.5" fill="#AF47D2"/>
<circle cx="75" cy="116" r="20.5" fill="white" stroke="white"/>
<path d="M87.617 114.54C87.617 116.099 86.6737 117.476 85.221 118.055L84.8626 118.199V129.857L83.3847 131.335H83.3784L76.1654 138.541V145.276H75.6371H74.4989H73.9706V108.849L73.6751 108.73C72.2224 108.151 71.2791 106.774 71.2791 105.215C71.2791 103.127 72.977 101.429 75.0649 101.429C77.1527 101.429 78.8506 103.127 78.8506 105.215C78.8506 106.774 77.9136 108.151 76.4609 108.73L76.1654 108.849V135.429L82.6615 128.933V118.149L82.4351 118.061C80.9825 117.483 80.0455 116.099 80.0455 114.546C80.0455 112.458 81.7434 110.761 83.8312 110.761C85.919 110.754 87.617 112.452 87.617 114.54ZM66.3048 116.904C64.217 116.904 62.519 118.602 62.519 120.689C62.519 122.249 63.4623 123.626 64.915 124.204L65.2043 124.324V145.276H65.7325H66.8708H67.399V124.324L67.6883 124.204C69.141 123.626 70.078 122.243 70.078 120.689C70.0906 118.608 68.3926 116.904 66.3048 116.904Z" fill="url(#paint3_radial_90_6)"/>
<path d="M63.7724 133.646C71.8659 138.745 82.6886 137.777 89.7382 130.734C96.7878 123.686 97.7562 112.864 92.6498 104.771L106.541 90.8809L104.762 98.2882C106.453 101.143 107.692 104.186 108.491 107.318L115 108.557V123.308L108.485 124.547C107.686 127.678 106.447 130.716 104.755 133.57L108.478 139.047L98.0455 149.479L92.5681 145.757C89.7193 147.448 86.6756 148.681 83.5439 149.485L82.305 156H67.5582L66.3193 149.492C63.1876 148.693 60.1439 147.454 57.2889 145.763L49.8809 147.542L63.7724 133.646Z" fill="#26355D"/>
<path d="M41.4962 107.453C42.2948 104.315 43.54 101.265 45.2316 98.4106L41.5213 92.9526L51.9541 82.5207L57.4127 86.2306C60.2677 84.5392 63.3177 83.2941 66.4557 82.4955L67.6883 76H82.4414L83.6803 82.4955C86.8183 83.3004 89.862 84.5392 92.717 86.2306L100.106 84.4386L86.2146 98.3351C78.1211 93.2292 67.2984 94.1976 60.2488 101.246C53.1993 108.295 52.2308 119.117 57.3372 127.21L43.4456 141.1L45.2379 133.712C43.5462 130.857 42.3011 127.813 41.5024 124.676L35 123.443V108.685L41.4962 107.453Z" fill="url(#paint4_linear_90_6)"/>
<defs>
<linearGradient id="paint0_linear_90_6" x1="189.682" y1="-92.8023" x2="346.857" y2="324.858" gradientUnits="userSpaceOnUse">
<stop offset="0.215" stop-color="#AF47D2"/>
<stop offset="0.89" stop-color="#576999"/>
</linearGradient>
<linearGradient id="paint1_linear_90_6" x1="516.5" y1="36" x2="602.5" y2="195" gradientUnits="userSpaceOnUse">
<stop offset="0.215" stop-color="#AF47D2"/>
<stop offset="0.89" stop-color="#576999"/>
</linearGradient>
<linearGradient id="paint2_linear_90_6" x1="598.576" y1="178.962" x2="615.617" y2="211.272" gradientUnits="userSpaceOnUse">
<stop offset="0.215" stop-color="#AF47D2"/>
<stop offset="0.89" stop-color="#576999"/>
</linearGradient>
<radialGradient id="paint3_radial_90_6" cx="0" cy="0" r="1" gradientUnits="userSpaceOnUse" gradientTransform="translate(70.2458 104.911) scale(26.9738 26.9712)">
<stop stop-color="#65AFCD"/>
<stop offset="0.1202" stop-color="#5F9ABB"/>
<stop offset="0.3922" stop-color="#527196"/>
<stop offset="0.6389" stop-color="#49537C"/>
<stop offset="0.8499" stop-color="#43416C"/>
<stop offset="1" stop-color="#413A66"/>
</radialGradient>
<linearGradient id="paint4_linear_90_6" x1="67.5531" y1="76" x2="67.5531" y2="141.1" gradientUnits="userSpaceOnUse">
<stop stop-color="#D8E0F7"/>
<stop offset="0.495" stop-color="#D8E0F7"/>
<stop offset="0.7475" stop-color="#D8E0F7"/>
<stop offset="1" stop-color="#D8E0F7"/>
</linearGradient>
</defs>
</svg>
